<svg width="122" height="32" viewBox="0 0 122 32" fill="none" xmlns="http://www.w3.org/2000/svg">
<path d="M8.00016 19.3107L11.4201 21.3359L10.5125 17.5189L13.534 14.9506L9.55518 14.614L8.00016 11.0195L6.44515 14.614L2.46631 14.9506L5.48226 17.5189L4.58024 21.3359L8.00016 19.3107Z" fill="#FB8200"/>
<path d="M22.0002 19.3107L25.4201 21.3359L24.5125 17.5189L27.534 14.9506L23.5552 14.614L22.0002 11.0195L20.4451 14.614L16.4663 14.9506L19.4823 17.5189L18.5802 21.3359L22.0002 19.3107Z" fill="#FB8200"/>
<path d="M36.0002 19.3107L39.4201 21.3359L38.5125 17.5189L41.534 14.9506L37.5552 14.614L36.0002 11.0195L34.4451 14.614L30.4663 14.9506L33.4823 17.5189L32.5802 21.3359L36.0002 19.3107Z" fill="#FB8200"/>
<path d="M50.0002 19.3107L53.4201 21.3359L52.5125 17.5189L55.534 14.9506L51.5552 14.614L50.0002 11.0195L48.4451 14.614L44.4663 14.9506L47.4823 17.5189L46.5802 21.3359L50.0002 19.3107Z" fill="#FB8200"/>
<path d="M64.0002 18.2717V12.8544L64.9465 15.2019L67.3703 15.4174L65.533 17.1009L66.0809 19.594L64.0002 18.2717ZM69.534 14.6834L65.5552 14.3281L64.0002 10.4661L62.4451 14.3281L58.4663 14.6834L61.4823 17.4387L60.5802 21.5338L64.0002 19.361L67.4201 21.5338L66.5125 17.4387L69.534 14.6834Z" fill="#FB8200"/>
<path d="M87.6562 17.2812V18.8262H80.4854L80.3896 17.6299L84.5391 11.0469H86.1045L84.4092 13.8838L82.3447 17.2812H87.6562ZM86.5283 11.0469V21H84.5596V11.0469H86.5283ZM89.0004 20.0498C89.0004 19.7581 89.1007 19.5143 89.3012 19.3184C89.5063 19.1224 89.7774 19.0244 90.1146 19.0244C90.4519 19.0244 90.7208 19.1224 90.9213 19.3184C91.1264 19.5143 91.2289 19.7581 91.2289 20.0498C91.2289 20.3415 91.1264 20.5853 90.9213 20.7812C90.7208 20.9772 90.4519 21.0752 90.1146 21.0752C89.7774 21.0752 89.5063 20.9772 89.3012 20.7812C89.1007 20.5853 89.0004 20.3415 89.0004 20.0498ZM94.3777 19.5029H94.5076C95.0545 19.5029 95.5239 19.4368 95.9158 19.3047C96.3123 19.168 96.6382 18.972 96.8934 18.7168C97.1486 18.4616 97.3377 18.1494 97.4607 17.7803C97.5838 17.4066 97.6453 16.9827 97.6453 16.5088V14.6221C97.6453 14.262 97.6089 13.9453 97.5359 13.6719C97.4676 13.3984 97.3673 13.1729 97.2352 12.9951C97.1076 12.8128 96.9572 12.6761 96.784 12.585C96.6154 12.4938 96.4285 12.4482 96.2234 12.4482C96.0047 12.4482 95.811 12.5029 95.6424 12.6123C95.4738 12.7171 95.3302 12.8607 95.2117 13.043C95.0978 13.2253 95.0089 13.4349 94.9451 13.6719C94.8859 13.9043 94.8562 14.1481 94.8562 14.4033C94.8562 14.6585 94.8859 14.9023 94.9451 15.1348C95.0044 15.3626 95.0932 15.5654 95.2117 15.7432C95.3302 15.9163 95.4783 16.0553 95.6561 16.1602C95.8338 16.2604 96.0434 16.3105 96.285 16.3105C96.5174 16.3105 96.7247 16.2673 96.907 16.1807C97.0939 16.0895 97.2511 15.971 97.3787 15.8252C97.5109 15.6794 97.6111 15.5176 97.6795 15.3398C97.7524 15.1621 97.7889 14.9821 97.7889 14.7998L98.4383 15.1553C98.4383 15.4743 98.3699 15.7887 98.2332 16.0986C98.0965 16.4085 97.9051 16.6911 97.659 16.9463C97.4174 17.1969 97.1372 17.3975 96.8182 17.5479C96.4992 17.6982 96.1574 17.7734 95.7928 17.7734C95.3279 17.7734 94.9155 17.6891 94.5555 17.5205C94.1954 17.3473 93.8901 17.1104 93.6395 16.8096C93.3934 16.5042 93.2065 16.1488 93.0789 15.7432C92.9513 15.3376 92.8875 14.8978 92.8875 14.4238C92.8875 13.9408 92.965 13.4873 93.1199 13.0635C93.2794 12.6396 93.505 12.266 93.7967 11.9424C94.0929 11.6188 94.4461 11.3659 94.8562 11.1836C95.271 10.9967 95.7312 10.9033 96.2371 10.9033C96.743 10.9033 97.2033 11.0013 97.618 11.1973C98.0327 11.3932 98.3882 11.6712 98.6844 12.0312C98.9806 12.3867 99.2085 12.8128 99.368 13.3096C99.532 13.8063 99.6141 14.3577 99.6141 14.9639V15.6475C99.6141 16.2946 99.5434 16.8962 99.4021 17.4521C99.2654 18.0081 99.0581 18.5117 98.7801 18.9629C98.5066 19.4095 98.1648 19.7923 97.7547 20.1113C97.3491 20.4303 96.8774 20.6742 96.3396 20.8428C95.8019 21.0114 95.2003 21.0957 94.535 21.0957H94.3777V19.5029ZM102.517 19.5029H102.647C103.194 19.5029 103.663 19.4368 104.055 19.3047C104.451 19.168 104.777 18.972 105.032 18.7168C105.288 18.4616 105.477 18.1494 105.6 17.7803C105.723 17.4066 105.784 16.9827 105.784 16.5088V14.6221C105.784 14.262 105.748 13.9453 105.675 13.6719C105.607 13.3984 105.506 13.1729 105.374 12.9951C105.247 12.8128 105.096 12.6761 104.923 12.585C104.754 12.4938 104.568 12.4482 104.362 12.4482C104.144 12.4482 103.95 12.5029 103.781 12.6123C103.613 12.7171 103.469 12.8607 103.351 13.043C103.237 13.2253 103.148 13.4349 103.084 13.6719C103.025 13.9043 102.995 14.1481 102.995 14.4033C102.995 14.6585 103.025 14.9023 103.084 15.1348C103.143 15.3626 103.232 15.5654 103.351 15.7432C103.469 15.9163 103.617 16.0553 103.795 16.1602C103.973 16.2604 104.182 16.3105 104.424 16.3105C104.656 16.3105 104.864 16.2673 105.046 16.1807C105.233 16.0895 105.39 15.971 105.518 15.8252C105.65 15.6794 105.75 15.5176 105.819 15.3398C105.891 15.1621 105.928 14.9821 105.928 14.7998L106.577 15.1553C106.577 15.4743 106.509 15.7887 106.372 16.0986C106.236 16.4085 106.044 16.6911 105.798 16.9463C105.557 17.1969 105.276 17.3975 104.957 17.5479C104.638 17.6982 104.296 17.7734 103.932 17.7734C103.467 17.7734 103.055 17.6891 102.695 17.5205C102.335 17.3473 102.029 17.1104 101.779 16.8096C101.532 16.5042 101.346 16.1488 101.218 15.7432C101.09 15.3376 101.027 14.8978 101.027 14.4238C101.027 13.9408 101.104 13.4873 101.259 13.0635C101.418 12.6396 101.644 12.266 101.936 11.9424C102.232 11.6188 102.585 11.3659 102.995 11.1836C103.41 10.9967 103.87 10.9033 104.376 10.9033C104.882 10.9033 105.342 11.0013 105.757 11.1973C106.172 11.3932 106.527 11.6712 106.823 12.0312C107.12 12.3867 107.348 12.8128 107.507 13.3096C107.671 13.8063 107.753 14.3577 107.753 14.9639V15.6475C107.753 16.2946 107.682 16.8962 107.541 17.4521C107.404 18.0081 107.197 18.5117 106.919 18.9629C106.646 19.4095 106.304 19.7923 105.894 20.1113C105.488 20.4303 105.016 20.6742 104.479 20.8428C103.941 21.0114 103.339 21.0957 102.674 21.0957H102.517V19.5029Z" fill="#5E6366"/>
</svg>
